# xmcd
#
# Track frame offsets:
#	150
#	13809
#	31025
#	43347
#	52844
#	62204
#	73319
#	89252
#	103891
#	114461
#	124012
#	137561
#	149708
#	161697
#	174858
#	192042
#	204816
#
# Disc length: 2882 seconds
#
# Revision: 1
# Processed by: cddbd v1.5.2PL0 Copyright (c) Steve Scherf et al.
# Submitted via: audiograbber 1.83.01
#
DISCID=f00b4011
DTITLE=Country - The Best Of Country and Western CD 7
DYEAR=1900
DGENRE=Country
TTITLE0=Willie Nelson - A moment isn't very long
TTITLE1=John Denver - Calypso
TTITLE2=Patsy Cline - A poor man's roses
TTITLE3=George Jones - Lonely street
TTITLE4=Loretty Lynn - Y'all come
TTITLE5=Charly Pride - Louisiana man
TTITLE6=Brenda Lee - Johnny one time
TTITLE7=The Buckeroos - Rollin' back to Tennessee
TTITLE8=Johnny Russell - Act naturally
TTITLE9=Skeeter Davis - Am I that easy to forget
TTITLE10=Jerry Lee Lewis - Another place, another time
TTITLE11=Ernest Tubb - Thanks a lot
TTITLE12=Dave Dudley - One more mile
TTITLE13=Dottie West - D.I.V.O.R.C.E.
TTITLE14=Tom T. Hall - Old dogs, children and watermelon wine
TTITLE15=Billie Jo Spears - Dallas
TTITLE16=Dolly Parton - Letter to heaven
EXTD=
EXTT0=
EXTT1=
EXTT2=
EXTT3=
EXTT4=
EXTT5=
EXTT6=
EXTT7=
EXTT8=
EXTT9=
EXTT10=
EXTT11=
EXTT12=
EXTT13=
EXTT14=
EXTT15=
EXTT16=
PLAYORDER=
